<?xml version="1.0" encoding="utf-8"?>
<!-- Generator: Adobe Illustrator 23.0.1, SVG Export Plug-In . SVG Version: 6.00 Build 0)  -->
<svg version="1.1" id="图层_1" xmlns="http://www.w3.org/2000/svg" xmlns:xlink="http://www.w3.org/1999/xlink" x="0px" y="0px"
	 viewBox="0 0 200 100" style="enable-background:new 0 0 200 100;" xml:space="preserve">
<style type="text/css">
	.st0{fill:#FFFFFF;}
</style>
<g>
	<rect x="4.5" y="5.5" width="88.44" height="88.44"/>
	<path d="M92.44,6v87.44H5V6H92.44 M93.44,5H4v89.44h89.44V5L93.44,5z"/>
</g>
<g>
	<rect x="48.62" y="12.66" class="st0" width="37.16" height="34.78"/>
	<path class="st0" d="M85.29,13.16v33.78H49.12V13.16H85.29 M86.29,12.16H48.12v35.78h38.16V12.16L86.29,12.16z"/>
</g>
<g>
	<rect x="48.62" y="55.59" class="st0" width="37.16" height="39.91"/>
	<path class="st0" d="M85.29,56.09V95H49.12V56.09H85.29 M86.29,55.09H48.12V96h38.16V55.09L86.29,55.09z"/>
</g>
<g>
	<rect x="107.06" y="5.5" width="88.44" height="88.44"/>
	<path d="M195,6v87.44h-87.44V6H195 M196,5h-89.44v89.44H196V5L196,5z"/>
</g>
<g>
	<rect x="151.18" y="12.66" class="st0" width="37.16" height="74.13"/>
	<path class="st0" d="M187.84,13.16v73.13h-36.16V13.16H187.84 M188.84,12.16h-38.16v75.13h38.16V12.16L188.84,12.16z"/>
</g>
</svg>
